<?xml version="1.0" encoding="UTF-8"?>
<!DOCTYPE svg PUBLIC "-//W3C//DTD SVG 1.1//EN" "http://www.w3.org/Graphics/SVG/1.1/DTD/svg11.dtd">
<svg xmlns="http://www.w3.org/2000/svg" version="1.1" width="30px" height="23px" style="shape-rendering:geometricPrecision; text-rendering:geometricPrecision; image-rendering:optimizeQuality; fill-rule:evenodd; clip-rule:evenodd" xmlns:xlink="http://www.w3.org/1999/xlink">
<g><path style="opacity:1" fill="#fff" d="M -0.5,-0.5 C 9.5,-0.5 19.5,-0.5 29.5,-0.5C 29.5,0.5 29.5,1.5 29.5,2.5C 19.5,2.5 9.5,2.5 -0.5,2.5C -0.5,1.5 -0.5,0.5 -0.5,-0.5 Z"/></g>
<g><path style="opacity:1" fill="#fff" d="M -0.5,9.5 C 9.5,9.5 19.5,9.5 29.5,9.5C 29.5,10.5 29.5,11.5 29.5,12.5C 19.5,12.5 9.5,12.5 -0.5,12.5C -0.5,11.5 -0.5,10.5 -0.5,9.5 Z"/></g>
<g><path style="opacity:1" fill="#fff" d="M -0.5,19.5 C 9.5,19.5 19.5,19.5 29.5,19.5C 29.5,20.5 29.5,21.5 29.5,22.5C 19.5,22.5 9.5,22.5 -0.5,22.5C -0.5,21.5 -0.5,20.5 -0.5,19.5 Z"/></g>
</svg>
