<svg className="logoIpsum" xmlns="http://www.w3.org/2000/svg" version="1.1" width="160px" height="32px" style="shape-rendering:geometricPrecision; text-rendering:geometricPrecision; image-rendering:optimizeQuality; fill-rule:evenodd; clip-rule:evenodd" xmlns:xlink="http://www.w3.org/1999/xlink">
<g><path style="opacity:0.852" fill="#272837" d="M 11.5,-0.5 C 13.5,-0.5 15.5,-0.5 17.5,-0.5C 19.7446,2.05555 19.9113,4.72222 18,7.5C 15.4803,8.20664 12.9803,9.03997 10.5,10C 9.87236,12.8003 8.87236,15.467 7.5,18C 4.35415,20.1192 1.68748,19.6192 -0.5,16.5C -0.5,15.1667 -0.5,13.8333 -0.5,12.5C 2.38513,10.4083 5.55179,8.74165 9,7.5C 9.27236,4.61805 10.1057,1.95138 11.5,-0.5 Z"/></g>
<g><path style="opacity:0.85" fill="#272838" d="M 23.5,0.5 C 29.0001,-0.168585 31.1667,2.16475 30,7.5C 26.8655,8.87354 23.8655,10.5402 21,12.5C 20.8485,15.1193 20.0152,17.4527 18.5,19.5C 15.7235,19.946 13.2235,20.946 11,22.5C 11.402,28.9451 8.56869,31.4451 2.5,30C 0.149941,27.6272 -0.0167261,25.1272 2,22.5C 4.71761,21.6532 7.38428,20.6532 10,19.5C 10.2895,17.0481 10.9562,14.7148 12,12.5C 14.6667,11.1667 17.3333,9.83333 20,8.5C 20.8717,5.63876 22.0384,2.97209 23.5,0.5 Z"/></g>
<g><path style="opacity:0.843" fill="#272838" d="M 43.5,5.5 C 44.8333,5.5 46.1667,5.5 47.5,5.5C 47.5,11.5 47.5,17.5 47.5,23.5C 46.1667,23.5 44.8333,23.5 43.5,23.5C 43.5,17.5 43.5,11.5 43.5,5.5 Z"/></g>
<g><path style="opacity:0.783" fill="#272838" d="M 91.5,5.5 C 93.7159,5.27459 95.3826,6.10793 96.5,8C 95.5286,13.0717 95.1953,18.2384 95.5,23.5C 94.1667,23.5 92.8333,23.5 91.5,23.5C 91.8267,17.046 91.8267,11.046 91.5,5.5 Z"/></g>
<g><path style="opacity:0.75" fill="#272838" d="M 159.5,6.5 C 159.5,7.83333 159.5,9.16667 159.5,10.5C 155.092,11.9235 153.426,10.4235 154.5,6C 156.265,5.36026 157.932,5.52692 159.5,6.5 Z"/></g>
<g><path style="opacity:0.858" fill="#272838" d="M 62.5,16.5 C 62.5,16.8333 62.5,17.1667 62.5,17.5C 60.7745,23.1931 57.1079,24.8598 51.5,22.5C 48.0253,19.2617 47.692,15.7617 50.5,12C 56.3932,9.01347 60.3932,10.5135 62.5,16.5 Z M 54.5,14.5 C 57.9563,15.5362 58.2896,17.2029 55.5,19.5C 53.2957,18.218 52.9624,16.5514 54.5,14.5 Z"/></g>
<g><path style="opacity:0.836" fill="#272837" d="M 62.5,17.5 C 62.5,17.1667 62.5,16.8333 62.5,16.5C 62.84,14.321 63.84,12.4877 65.5,11C 68.8168,10.5017 72.1501,10.335 75.5,10.5C 75.6659,15.5111 75.4993,20.5111 75,25.5C 71.0821,29.4615 67.2488,29.4615 63.5,25.5C 64.09,24.2011 65.09,23.3678 66.5,23C 64.5359,21.549 63.2026,19.7157 62.5,17.5 Z M 67.5,14.5 C 70.5,14.1667 71.8333,15.5 71.5,18.5C 67.56,19.234 66.2266,17.9007 67.5,14.5 Z"/></g>
<g><path style="opacity:0.834" fill="#272838" d="M 80.5,10.5 C 90.1144,10.402 92.4477,14.402 87.5,22.5C 79.6968,24.532 76.5302,21.532 78,13.5C 78.6979,12.3094 79.5313,11.3094 80.5,10.5 Z M 82.5,14.5 C 85.9563,15.5362 86.2896,17.2029 83.5,19.5C 81.2957,18.218 80.9624,16.5514 82.5,14.5 Z"/></g>
<g><path style="opacity:0.865" fill="#272838" d="M 97.5,10.5 C 105.881,8.08484 110.547,11.0848 111.5,19.5C 112.308,19.1924 112.975,18.6924 113.5,18C 110.833,15.6667 110.833,13.3333 113.5,11C 116.649,9.96544 119.316,10.6321 121.5,13C 120.672,13.9147 119.672,14.5814 118.5,15C 123.204,21.3209 121.538,23.9875 113.5,23C 112.069,22.5348 110.903,21.7014 110,20.5C 107.872,23.4578 105.206,24.1244 102,22.5C 101.506,24.1341 101.34,25.8008 101.5,27.5C 100.167,27.5 98.8333,27.5 97.5,27.5C 97.5,21.8333 97.5,16.1667 97.5,10.5 Z M 102.5,14.5 C 106.161,14.3501 107.161,15.8501 105.5,19C 102.14,19.1178 101.14,17.6178 102.5,14.5 Z"/></g>
<g><path style="opacity:0.757" fill="#272838" d="M 122.5,10.5 C 123.833,10.5 125.167,10.5 126.5,10.5C 126.336,13.1873 126.503,15.854 127,18.5C 127.414,18.9574 127.914,19.2907 128.5,19.5C 129.484,16.5719 129.817,13.5719 129.5,10.5C 131.167,10.5 132.833,10.5 134.5,10.5C 134.5,14.8333 134.5,19.1667 134.5,23.5C 123.658,25.6554 119.658,21.3221 122.5,10.5 Z"/></g>
<g><path style="opacity:0.72" fill="#272837" d="M 135.5,10.5 C 141.326,10.8275 146.993,10.9942 152.5,11C 154.312,14.922 154.979,19.0887 154.5,23.5C 152.833,23.5 151.167,23.5 149.5,23.5C 148.833,11.5 148.167,11.5 147.5,23.5C 145.833,23.5 144.167,23.5 142.5,23.5C 141.833,11.5 141.167,11.5 140.5,23.5C 138.833,23.5 137.167,23.5 135.5,23.5C 135.5,19.1667 135.5,14.8333 135.5,10.5 Z"/></g>
<g><path style="opacity:0.873" fill="#272838" d="M 19.5,31.5 C 17.5,31.5 15.5,31.5 13.5,31.5C 11.1068,25.0361 13.4401,21.5361 20.5,21C 21.9563,18.7342 22.7896,16.2342 23,13.5C 25.6667,10.8333 28.3333,10.8333 31,13.5C 31.6667,15.5 31.6667,17.5 31,19.5C 28.2152,20.8947 25.3819,22.228 22.5,23.5C 21.9929,26.4221 20.9929,29.0887 19.5,31.5 Z"/></g>
</svg>
